<svg id="interchain-foundation-emblem-1650959409933" version="1.1" width="120" height="120" viewBox="0 0 640 640" xmlns="http://www.w3.org/2000/svg" fill="none" preserveAspectRatio="xMinYMin"><path stroke="black" stroke-width="11.636363636363637" d="M634.1575083350826,320.0054830828909L634.0498342186326,328.22352642230317L633.7267233855125,336.44721148280274L633.1882827299955,344.65961082643094L632.4359474926878,352.8438546162623L631.4698437801294,361.0056236445367L630.2887804196407,369.15046625562366L628.8949733221116,377.261612805569L627.2912730327555,385.32238200543947L625.477324571074,393.3384546731423L623.4514742221113,401.3152539647636L621.2172359520226,409.23621198300276L618.779959975448,417.08525909226097L616.1380400082166,424.867812542977L613.2893767568373,432.5891167717433L610.2394123071729,440.23314145999274L606.9949345570456,447.78437938278455L603.5539899962072,455.24814053781495L599.9139395067691,462.6294296545843L596.0816649258427,469.9127714787446L592.0657406259758,477.0835599086248L587.863469100332,484.1467598464501L583.4716102635814,491.10700212316726L578.8991090487823,497.9499258019111L574.1555402760767,504.66158620361864L569.2379854045537,511.24683366840213L564.1428224556221,517.710014856562L558.8800875989555,524.0374980139948L553.4608578019474,530.2164787691962L547.8819792419736,536.2517060810895L542.1389773208597,542.1467315681411L536.2437513712871,547.8895277129748L530.2083293179921,553.4681956027521L524.0291594058261,558.8872097050753L517.7014925462724,564.1497236913979L511.2381335054857,569.2446610332904L504.6527143878943,574.1619860289235L497.940888411506,578.9053205170076L491.0978676620722,583.4776791605464L484.1373496125219,587.869100914698L477.0740056816462,592.0711245493469L469.9031343242625,596.086897699455L462.6196066104863,599.9188157364091L455.2382425547295,603.5587108712713L447.7743612945984,606.9993948946646L440.2230540288733,610.2437150527069L432.5788789767515,613.2933066777273L424.8574753163503,616.1417004039033L417.0747942621,618.783239811032L409.22569746280703,621.2203506939684L401.3046317462319,623.4542015655423L393.32779146055,625.4798843785193L385.31165548056003,627.293553027617L377.250830304816,628.8969719445736L369.13965306515183,630.2906093156598L360.99476624291043,631.4713887141843L352.83296049049414,632.4372076453271L344.6486694714667,633.1890289475464L336.4362603429418,633.7272973118127L328.2125640123007,634.0501210833065L319.9945169184952,634.1575083351952L311.77647357608487,634.0498342194122L303.55278851257737,633.7267233869595L295.34038916593755,633.1882827321085L287.1561453810907,632.4359474954637L278.9943763528184,631.4698437884174L270.8495337417153,630.2887804254353L262.7383871917356,628.8949733254058L254.67761799181275,627.2912730335465L246.6615453225285,625.4773245696215L238.68474602929467,623.4514742184056L230.76378800941538,621.2172359460576L222.91474090648668,618.7799599752152L215.13218745561932,616.1380400071039L207.41088322666116,613.2893767548296L199.76685853818,610.2394123042557L192.2156206151176,606.9949345532057L184.75185946292586,603.5539899933024L177.37057034094605,599.9139395047799L170.08722851953308,596.0816649247466L162.91644009235102,592.0657406257469L155.8532401488818,587.86346910079L148.89299787446961,583.4716102646955L142.05007419798218,578.8991090505194L135.33841379847877,574.1555402784007L128.75316633117325,569.2379854112711L122.28998514043727,564.1428224586907L115.96250198038061,558.8800875983329L109.78352123050769,553.4608578055911L103.74829391663474,547.8819792432396L97.85326842755481,542.1389773196987L92.11047228865138,536.2437513676535L86.53180439675629,530.2083293198381L81.11279029886586,524.0291594015956L75.85027630893316,517.7014925439157L70.75533896339007,511.2381335049547L65.83801397206818,504.652714389136L61.09467948662825,497.94088840973086L56.522320837696554,491.09786765722777L52.13089908612204,484.13734960456145L47.92887545401521,477.0740056785219L43.91310229972629,469.90313431929803L40.08118426656523,462.61960660363576L36.44128913547013,455.2382425539521L33.00060510781759,447.7743612918451L29.756284952438875,440.22305402543026L26.706693322060744,432.57887897257945L23.858299590511535,424.8574753114113L21.21676018599976,417.0747942643507L18.77964930567407,409.2256974635755L16.545798436705354,401.30463174548413L14.520115626323673,393.3277914582548L12.706446971813193,385.31165547668945L11.103028055648167,377.25083030202927L9.70939068535074,369.13965306343243L8.528611287611227,360.9947662422396L7.562792357248554,352.8329604908508L6.8109710544162,344.64866947629565L6.2727026895340146,336.43626034423454L5.949878917423007,328.21256401004945L5.842491664917304,319.9945169171083L5.950165781367446,311.7764735776961L6.273276614487429,303.55278851719663L6.811717270004408,295.3403891735685L7.564052507312283,287.15614538373717L8.530156219870662,278.99437635546286L9.711219580359227,270.849533744376L11.105026677888361,262.73838719443074L12.708726967244559,254.6776179945603L14.522675428926107,246.66154532685758L16.548525777888756,238.68474603523634L18.782764047977366,230.76378801699718L21.220040024551963,222.9147409077391L23.861959991783408,215.13218745702306L26.710623243162615,207.4108832282569L29.760587692827187,199.7668585400075L33.00506544295439,192.21562061721576L36.44601000379282,184.75185946218542L40.086060493230946,177.37057034541604L43.918335074157255,170.0872285212558L47.934259374024236,162.9164400913757L52.136530899667946,155.8532401535505L56.5283897364186,148.89299787683336L61.10089095121765,142.0500741980896L65.84445972392325,135.3384137963821L70.76201459544629,128.75316633159866L75.85717754437786,122.2899851434388L81.11991240104447,115.96250198600606L86.53914219805253,109.7835212308047L92.11802075802643,103.74829391891132L97.86102267914035,97.85326843185976L103.75624862871297,92.1104722870262L109.79167068200792,86.53180439724883L115.9708405941739,81.11279029492573L122.29850745372755,75.8502763086031L128.76186649451432,70.75533896671064L135.34728561210568,65.83801397107757L142.05911158849398,61.094679482993456L148.9021323379278,56.52232083945472L155.86265038747806,52.13089908530293L162.92599431835382,47.92887545065412L170.09686567573752,43.913102300546086L177.3803933895137,40.081184263591865L184.76175744527052,36.44128912872969L192.22563870540162,33.00060510533626L199.77694597112665,29.75628494729392L207.4211210232485,26.706693322273566L215.1425246836497,23.85829959609748L222.9252057379,21.216760188968806L230.77430253719297,18.779649306032297L238.6953682537681,16.545798434458277L246.67220853945005,14.520115621481409L254.68834451943997,12.706446972383617L262.749169695184,11.103028055427046L270.86034693484817,9.709390684340633L279.00523375708957,8.528611285816112L287.16703950950586,7.562792354673206L295.3513305285333,6.810971052453908L303.5637396570582,6.2727026881875645L311.7874359876993,5.949878916693592L320.0054830815048,5.842491664804811L328.22352642391513,5.950165780587781L336.44721148742263,6.273276613040366L344.65961083406245,6.811717267891254L352.8438546189093,7.5640525045360505L361.0056236471816,8.530156211582266L369.1504662582847,9.711219574564211L377.2616128082644,11.10502667459366L385.3223820081872,12.708726966452843L393.33845467747153,14.522675430377944L401.3152539707053,16.548525781593753L409.2362119905846,18.78276405394155L417.0852590935133,21.220040024783827L424.8678125443807,23.86195999289521L432.58911677333884,26.710623245169415L440.23314146181997,29.760587695743254L447.7843793848824,33.00506544679325L455.24814053707416,36.44601000669638L462.6294296590539,40.08606049521882L469.9127714804669,43.91833507525206L477.083559907649,47.934259374251724L484.1467598511182,52.13653089920854L491.10700212553036,56.52838973530288L497.9499258020178,61.10089094947898L504.66158620152123,65.84445972159753L511.24683366882675,70.76201458872714L517.7100148595628,75.85717754130752L524.0374980196194,81.11991240166529L530.2164787694924,86.53914219440708L536.2517060833652,92.11802075675865L542.1467315724452,97.8610226802995L547.8895277113486,103.75624863234461L553.4681956032437,109.79167068016008L558.8872097011341,115.97084059840256L564.1497236910668,122.29850745608232L569.24466103661,128.76186649504342L574.1619860279318,135.34728561086206L578.9053205133717,142.0591115902672L583.4776791623035,148.90213234277027L587.8691009138779,155.86265039543656L592.0711245459847,162.9259943214761L596.0868977002738,170.09686568070003L599.9188157334347,177.3803933963623L603.5587108645299,184.76175744604592L606.9993948921824,192.22563870815299L610.2437150475612,199.77694597456784L613.2933066779392,207.42112102741862L616.1417004094885,215.14252468858683L618.7832398140002,222.9252057356474L621.2203506943259,230.77430253642262L623.4542015632946,238.69536825451405L625.4798843736763,246.67220854174337L627.2935530281868,254.68834452330876L628.8969719443519,262.7491696979689L630.2906093146493,270.8603469365658L631.4713887123887,279.0052337577587L632.4372076427514,287.1670395091475L633.1890289455838,295.3513305237027L633.7272973104659,303.5637396557638L634.050121082577,311.7874359899489L634.1575083350826,320.0054830828901Z"></path><path stroke="black" stroke-width="11.636363636363637" d="M320,477.0796344248189L320,516.3491058260298L319.99999999999994,555.6185772272408L319.99999999999994,594.8880486284515L319.99999999779567,634.1575200448359M319.99999999779567,5.8424799551640945L319.99999999999994,45.111951371548514L319.99999999999994,84.38142277275921L320,123.65089417397016L320,162.92036557518108M319.9999972584432,477.07963267948963L312.29246500195796,476.89042324812993L304.60350087238317,476.3232510451874L296.951628257781,475.3794824381774L289.35528118950475,474.06139104833846L281.8327599330033,472.37215227328L274.4021869008786,470.31583563717095L267.0814629944065,467.8973949868997L259.88822447869717,465.1226565578231L252.83980049538843,461.9983049378554L245.95317131522503,458.5318669637098L239.24492743109943,454.73169358809014L232.73122959010126,450.6069397615141L226.4277698608621,446.16754237723586L220.34973382998743,441.4241963323993L214.51176401864882,436.3883287630945L208.92792460746747,431.07207151538574L203.61166755467156,425.48823191863204L198.5758001891503,419.65026193150845L193.83245435647723,413.5722257350598L189.3930571922312,407.2687658508564L185.2683035930262,400.7550678658772L181.4681304515684,394.0468238491005L178.0016927178115,387.1601945479356L174.87734134388012,380.11177045556644L172.10260316589498,372.91853184300055L169.68416277116523,365.5978078521089L167.62784639443208,358.16723474820526L165.93860788195914,350.64471343273823L164.62051675728276,343.0483663184519L163.67674841737346,335.39649367090595L163.10957648282644,327.7075295215332L162.92036732051037,319.9999972584432L163.10957674346244,312.29246517309883L163.6767489212226,304.60350121342765L164.620517486397,296.95162876625915L165.93860881794868,289.35528186172434L167.62784751854997,281.8327607640644L169.6841640643921,274.40218788469343L172.10260460902413,267.08146412372366L174.87734291760265,259.8882257451313L178.0016944028009,252.83980188945355L181.46813222856466,245.95317282637328L185.26830544291863,239.2449290477637L189.39305909614035,232.7312312997421L193.83245629583507,226.42777165001877L198.57580214577865,220.34973568433293L203.61166951085835,214.51176592304842L208.92792654604085,208.92792654604085L214.51176592304836,203.61166951085835L220.34973568433296,198.57580214577865L226.42777165001877,193.83245629583507L232.73123129974215,189.39305909614035L239.2449290477637,185.26830544291863L245.95317282637328,181.46813222856466L252.83980188945355,178.0016944028009L259.88822574513125,174.87734291760265L267.0814641237236,172.10260460902413L274.40218788469343,169.6841640643921L281.8327607640644,167.62784751854997L289.3552818617243,165.9386088179487L296.95162876625915,164.620517486397L304.60350121342765,163.6767489212226L312.2924651730988,163.10957674346244L319.9999972584432,162.92036732051037M320,477.0796309341604L320,437.809722764288L320,398.5398145944156L320,359.2699064245432L320,319.99999825467074L320,280.73009095746295L320,241.46018366025515L320,202.1902763630474L320,162.9203690658396M320.0000027415568,477.07963267948963L327.70753499804204,476.89042324812993L335.39649912761683,476.3232510451874L343.048371742219,475.3794824381774L350.64471881049525,474.06139104833846L358.1672400669967,472.37215227328L365.5978130991214,470.31583563717095L372.9185370055935,467.8973949868997L380.11177552130283,465.1226565578231L387.16019950461157,461.9983049378554L394.04682868477494,458.5318669637098L400.7550725689006,454.73169358809014L407.2687704098987,450.6069397615141L413.5722301391379,446.16754237723586L419.65026617001257,441.4241963323993L425.4882359813512,436.3883287630945L431.0720753925325,431.07207151538574L436.38833244532844,425.48823191863204L441.4241998108497,419.65026193150845L446.16754564352277,413.5722257350598L450.6069428077688,407.2687658508564L454.7316964069738,400.7550678658772L458.5318695484316,394.0468238491005L461.99830728218853,387.1601945479356L465.1226586561199,380.11177045556644L467.89739683410505,372.91853184300055L470.31583722883477,365.5978078521089L472.3721536055679,358.16723474820526L474.0613921180409,350.64471343273823L475.37948324271724,343.0483663184519L476.32325158262654,335.39649367090595L476.89042351717353,327.7075295215332L477.07963267948963,319.9999972584432L476.8904232565376,312.29246517309883L476.3232510787774,304.60350121342765L475.37948251360297,296.95162876625915L474.06139118205135,289.35528186172434L472.37215248145003,281.8327607640644L470.3158359356079,274.40218788469343L467.8973953909759,267.08146412372366L465.1226570823974,259.8882257451313L461.9983055971991,252.83980188945355L458.5318677714354,245.95317282637328L454.73169455708137,239.2449290477637L450.60694090385965,232.7312312997421L446.1675437041649,226.42777165001877L441.42419785422135,220.34973568433293L436.38833048914165,214.51176592304842L431.07207345395915,208.92792654604085L425.48823407695164,203.61166951085835L419.6502643156671,198.57580214577865L413.57222834998123,193.83245629583507L407.26876870025785,189.39305909614035L400.75507095223634,185.26830544291863L394.04682717362675,181.46813222856466L387.16019811054645,178.0016944028009L380.11177425486875,174.87734291760265L372.9185358762764,172.10260460902413L365.59781211530657,169.6841640643921L358.1672392359356,167.62784751854997L350.6447181382757,165.9386088179487L343.04837123374085,164.620517486397L335.39649878657235,163.6767489212226L327.7075348269012,163.10957674346244L320.0000027415568,162.92036732051037M5.842479954350267,320L10.204057771000123,320L14.567380900992305,320L18.930704030979143,320L23.29402716096473,320L27.657350290949807,320L32.02067342093562,320L36.38399655092144,320L40.74731968090731,320L45.110642810893125,320L49.47396594087894,320L53.837289070864756,320L58.20061220085057,320L62.56393533083639,320L66.9272584608222,320L71.29058159080802,320L75.65390472079389,320L80.0172278507797,320L84.38055098076552,320L88.74387411075134,320L93.10719724073715,320L97.47052037072297,320L101.83384350070878,320L106.1971666306946,320L110.56048976068047,320L114.92381289066628,320L119.2871360206521,320L123.65045915063794,320L128.01378228062376,320L132.37710541060957,320L136.7404285405954,320L141.10375167058123,320L145.46707480056705,320L149.83039793055286,320L154.19372106053868,320L158.55704419052452,320L162.92036732051034,320L167.28369045049615,320L171.647013580482,320L176.0103367104678,320L180.37365984045366,320L184.73698297043947,320L189.10030610042529,320L193.4636292304111,320L197.82695236039694,320L202.19027549038276,320L206.55359862036858,320L210.9169217503544,320L215.28024488034023,320L219.64356801032605,320L224.00689114031184,320L228.3702142702977,320L232.73353740028352,320L237.09686053026934,320L241.46018366025518,320L245.82350679024097,320L250.18682992022684,320L254.55015305021263,320L258.9134761801985,320L263.2767993101843,320L267.6401224401701,320L272.0034455701559,320L276.36676870014173,320L280.73009183012755,320L285.0934149601134,320L289.45673809009924,320L293.82006122008505,320L298.18338435007087,320L302.5467074800567,320L306.91003061004255,320L311.27335374002837,320L315.6366768700142,320L320,320L324.3633231299858,320L328.72664625997163,320L333.08996938995745,320L337.4532925199433,320L341.81661564992913,320L346.17993877991495,320L350.54326190990076,320L354.9065850398866,320L359.26990816987245,320L363.63323129985827,320L367.9965544298441,320L372.3598775598299,320L376.7232006898157,320L381.0865238198015,320L385.44984694978734,320L389.81317007977316,320L394.17649320975903,320L398.5398163397448,320L402.90313946973066,320L407.2664625997165,320L411.6297857297023,320L415.99310885968816,320L420.356431989674,320L424.7197551196598,320L429.0830782496456,320L433.4464013796314,320L437.80972450961724,320L442.17304763960306,320L446.53637076958887,320L450.8996938995747,320L455.2630170295605,320L459.6263401595463,320L463.9896632895322,320L468.352986419518,320L472.7163095495039,320L477.0796326794897,320L481.4429558094755,320L485.8062789394613,320L490.16960206944714,320L494.53292519943295,320L498.89624832941877,320L503.2595714594046,320L507.6228945893904,320L511.9862177193762,320L516.349540849362,320L520.712863979348,320L525.0761871093337,320L529.4395102393196,320L533.8028333693054,320L538.1661564992912,320L542.529479629277,320L546.8928027592628,320L551.2561258892487,320L555.6194490192345,320L559.9827721492203,320L564.3460952792061,320L568.709418409192,320L573.0727415391777,320L577.4360646691637,320L581.7993877991494,320L586.1627109291353,320L590.526034059121,320L594.8893571891069,320L599.2526803190926,320L603.6160034490786,320L607.9793265790644,320L612.3426497090502,320L616.7059728390352,320L621.0692959690209,320L625.4326190990078,320L629.7959422289998,320L634.1575200456498,320M246.9710859587878,498.88357587054367L238.52478396708264,498.7060149657044L229.81369095844641,497.98563365381335L220.85115214830827,496.6729760520726L211.65613304036765,494.7154827067734L202.2543483448676,492.05791923725695L192.67950194808017,488.6430716984131L182.9746037844933,484.41277878614466L173.1933045446182,479.3093750987573L168.2939938538386,476.4128348172047L163.4011571997357,473.27761646805595L158.52502275598505,469.89759699094674L153.67667619745686,466.26714349739507L148.86807031950414,462.38122095179847L144.1120238069128,458.2355078034189L139.42220723662717,453.82651859261233L134.8131143784607,449.15173214998686L130.30001690979407,444.2097235619376L125.89890079983647,439.0002976021013L121.62638286143547,433.5246208429419L117.49960632618385,427.7853491877624L113.53611477984373,421.786747129214L109.75370440176613,415.53479467880425L106.1702551776311,409.037277659257L102.80354258316657,402.30385694517565L99.6710321400727,395.34611231279104L96.78966018536065,388.17755684667384L94.1756051222032,380.8136183708747L91.84405427627684,373.2715851314563L89.80897220356351,365.57051394768246L88.08287682074447,357.73110024221114L86.67663000043643,349.7755107090187L85.59924924530307,341.72718081585083L84.85774669994098,333.61058078567487L84.45700107230428,325.450955070043L84.39966703732046,317.27404152622506L84.6861254297495,309.10577745606275L85.31447606948439,300.9720002894117L86.28057348625683,292.89815095251294L87.57810421808452,284.9089878323518L89.19870284627319,277.0283187417452L91.13210258951872,269.27875744423255L93.36631518545539,261.68151017450106L95.88783399336054,254.2561962682746L98.68185378529228,247.02070558422764L101.73250055777496,239.99109394974283L105.0230648717594,233.18151647595874L108.53623267496303,226.6041973364816L112.25430822391249,220.26943354216456L116.15942454136021,214.185629406006L120.23373775473652,208.35935779273677L124.45960260288675,202.7954438847917L128.81972731892134,197.49706705340407L133.2973069540323,192.4658764731351L137.87613496935072,187.70211632617668L142.54069357040788,183.20475677215984L147.27622378199462,178.97162727307295L153.67882310837373,173.73118657036446L160.15220994932315,168.94512985889904L166.66836805041098,164.6012807363885L173.20201449407506,160.68568421091842L179.73054031871214,157.1830430218602L186.23390682791492,154.0771046473745L192.69450960807126,151.35099816899677L199.0970206885308,148.9875222227804L205.4282176117211,146.96938673121073L211.6768065515081,145.2794120669533L217.83324510690503,143.90068984269135L223.88956905190776,142.81670974265018L229.83922616221807,142.0114567940898L235.67691926897913,141.469483292319L241.39845989917885,141.17595929900625L247.00063323547215,141.11670527656645M274.2878728688396,431.971386528578L268.18871021604957,422.2512767250388L262.77851613894717,412.27545088183564L258.02833600627696,402.0849111813996L253.91306292677848,391.7151803919299L250.41122749185988,381.1973759395258L247.50479124637428,370.55909737712363L245.1789571161537,359.8251681763061L243.42200455830704,349.0182651086506L242.22515380287064,338.1594624989232L241.582461503706,327.268714082857L241.49074893356135,316.3652918705383L241.94956322023563,305.46819912743524L242.96117180430602,294.59657321146483L244.5305901394267,283.7700934672289L246.66564251830124,273.00940964631565L249.3770556595887,262.3366074110051L251.5122838670538,255.2796615865446L253.9147542178294,248.28017578541727L256.5899786458656,241.34647811000428L259.54414740192937,234.4875899021815L262.78415620048173,227.71333867210345L266.3176342373913,221.03448605121133L270.152972113409,214.46287341751002L274.2993483206432,208.0115882404636M365.7121271311604,431.971386528578L371.81128978395043,422.2512767250388L377.22148386105283,412.27545088183564L381.97166399372304,402.0849111813996L386.0869370732215,391.7151803919299L389.5887725081401,381.1973759395258L392.4952087536257,370.55909737712363L394.8210428838463,359.8251681763061L396.57799544169296,349.0182651086506L397.77484619712936,338.1594624989232L398.417538496294,327.268714082857L398.50925106643865,316.3652918705383L398.05043677976437,305.46819912743524L397.038828195694,294.59657321146483L395.4694098605733,283.7700934672289L393.33435748169876,273.00940964631565L390.6229443404113,262.3366074110051L388.48771613294616,255.2796615865446L386.0852457821706,248.28017578541727L383.4100213541344,241.34647811000428L380.45585259807063,234.4875899021815L377.21584379951827,227.71333867210345L373.6823657626087,221.03448605121133L369.847027886591,214.46287341751002L365.7006516793568,208.0115882404636M393.0289140412122,498.88357587054367L401.4752160329174,498.7060149657044L410.1863090415536,497.98563365381335L419.1488478516917,496.6729760520726L428.34386695963235,494.7154827067734L437.7456516551324,492.05791923725695L447.3204980519198,488.6430716984131L457.0253962155067,484.41277878614466L466.8066954553818,479.3093750987573L471.70600614616137,476.4128348172047L476.59884280026426,473.27761646805595L481.47497724401495,469.89759699094674L486.32332380254314,466.26714349739507L491.1319296804959,462.38122095179847L495.8879761930872,458.2355078034189L500.5777927633728,453.82651859261233L505.1868856215393,449.15173214998686L509.69998309020593,444.2097235619376L514.1010992001635,439.0002976021013L518.3736171385646,433.5246208429419L522.5003936738161,427.7853491877624L526.4638852201563,421.786747129214L530.2462955982339,415.53479467880425L533.8297448223689,409.037277659257L537.1964574168335,402.30385694517565L540.3289678599273,395.34611231279104L543.2103398146394,388.17755684667384L545.8243948777967,380.8136183708747L548.1559457237231,373.2715851314563L550.1910277964365,365.57051394768246L551.9171231792556,357.73110024221114L553.3233699995635,349.7755107090187L554.4007507546969,341.72718081585083L555.142253300059,333.61058078567487L555.5429989276957,325.450955070043L555.6003329626795,317.27404152622506L555.3138745702505,309.10577745606275L554.6855239305156,300.9720002894117L553.7194265137432,292.89815095251294L552.4218957819155,284.9089878323518L550.8012971537269,277.0283187417452L548.8678974104813,269.27875744423255L546.6336848145446,261.68151017450106L544.1121660066394,254.2561962682746L541.3181462147077,247.02070558422764L538.267499442225,239.99109394974283L534.9769351282406,233.18151647595874L531.463767325037,226.6041973364816L527.7456917760875,220.26943354216456L523.8405754586398,214.185629406006L519.7662622452635,208.35935779273677L515.5403973971132,202.7954438847917L511.1802726810787,197.49706705340407L506.7026930459677,192.4658764731351L502.1238650306493,187.70211632617668L497.4593064295921,183.20475677215984L492.72377621800536,178.97162727307295L486.32117689162624,173.73118657036446L479.84779005067685,168.94512985889904L473.331631949589,164.6012807363885L466.79798550592494,160.68568421091842L460.26945968128786,157.1830430218602L453.7660931720851,154.0771046473745L447.30549039192874,151.35099816899677L440.9029793114692,148.9875222227804L434.5717823882789,146.96938673121073L428.3231934484919,145.2794120669533L422.166754893095,143.90068984269135L416.11043094809224,142.81670974265018L410.1607738377819,142.0114567940898L404.32308073102087,141.469483292319L398.6015401008211,141.17595929900625L392.99936676452785,141.11670527656645M320,529.4395102393196L314.7286005161517,529.3182019395675L309.48548259758365,528.9555752026633L304.2984695215381,528.3554885247732L299.1944852363811,527.52425468773L294.1991466547777,526.470470259379L289.33640316832776,525.2047894474942L284.6282342574771,523.7396535765959L280.0944125380011,522.0889890226481L275.7523358593261,520.2678870476287L271.61692846419476,518.2922786655904L267.7006080006935,516.1786165704227L264.0133125422254,513.9435744486897L260.56257983208326,511.60377190373475L257.35366975934255,509.17553094553557L254.38972055478723,506.6746677478353L251.6719292804872,504.11632129478767L249.19974775347526,501.5148187426611L246.9710859587878,498.88357587054367L244.9825161387974,496.2350299084861L243.22947197736198,493.5806012999784L241.7064385329004,490.9306805423575L240.40712974186877,488.29463610382606L239.32465136433117,485.6808394832974L238.45164814819913,483.09670370360163L237.78043473706924,480.5487318586197L237.30311044012083,478.04257272681986L237.01165843188332,475.58308088192473L236.89803027097628,473.17437914893793L236.95421683900048,470.8199216511267L237.17230692306458,468.52255605808796L237.54453471659627,466.2845839694626L238.06331750999436,464.1078186501337L238.7212848000049,461.9936395708784L239.51129997675133,459.94304340555504L240.42647566009208,457.9566912954525L241.46018366025515,456.0349523175663L242.60606043747103,454.1779431907348L243.85800883595522,452.3855643261416L245.21019677213928,450.6575323808072L246.65705346752543,448.993409508098L248.19326373414657,447.39262952130275L249.81376074593535,445.85452119782593L251.51371766248667,444.37832895495546L253.2885384125579,442.96323112550505L255.13384789280664,441.60835605455657L257.0454817921967,440.3127962283808L259.0194762136218,439.0756206344412L261.0520572309863,437.89588553802736L263.1396304916325,436.77264384714016L265.2787709500185,435.7049532232433L267.4662127983895,434.69188308175353L269.698839643327,433.73252061290054L271.97367496305776,432.8259759410238L274.2878728688396,431.971386528578L276.6387091842487,431.1679209201583L279.02357284846414,430.41478191173536L281.43995764338626,429.71120922102006L283.8854542394077,429.0564817264098L286.35774255066696,428.44991933428764L288.85458438747474,427.8908845274853L291.37381639116404,427.3787836414391L293.9133432347471,426.91306790890883L296.47113107135556,426.49323430903405L299.04520121140274,426.11882625191924L301.633624008664,425.7894341258127L304.234512934954,425.5046957302279L306.84601882274217,425.2642966149942L309.46632425483483,425.0679703421765L312.0936380801405,424.91549868502705L314.726190034482,424.8067117755784L317.36222544541164,424.7414882101289L320,424.7197551196598L322.63777455458836,424.7414882101289L325.273809965518,424.8067117755784L327.9063619198595,424.91549868502705L330.53367574516517,425.0679703421765L333.15398117725783,425.2642966149942L335.765487065046,425.5046957302279L338.366375991336,425.7894341258127L340.95479878859726,426.11882625191924L343.52886892864444,426.49323430903405L346.0866567652529,426.91306790890883L348.62618360883596,427.3787836414391L351.14541561252526,427.8908845274853L353.64225744933304,428.44991933428764L356.1145457605923,429.0564817264098L358.56004235661374,429.71120922102006L360.97642715153586,430.41478191173536L363.3612908157513,431.1679209201583L365.7121271311604,431.971386528578L368.02632503694224,432.8259759410238L370.301160356673,433.73252061290054L372.5337872016105,434.69188308175353L374.7212290499815,435.7049532232433L376.8603695083675,436.77264384714016L378.9479427690137,437.89588553802736L380.9805237863782,439.0756206344412L382.9545182078033,440.3127962283808L384.86615210719333,441.60835605455657L386.7114615874421,442.96323112550505L388.48628233751333,444.37832895495546L390.1862392540646,445.85452119782593L391.80673626585343,447.39262952130275L393.34294653247457,448.993409508098L394.7898032278607,450.6575323808072L396.1419911640448,452.3855643261416L397.393939562529,454.1779431907348L398.53981633974485,456.0349523175663L399.5735243399079,457.9566912954525L400.48870002324867,459.94304340555504L401.2787151999951,461.9936395708784L401.93668249000564,464.1078186501337L402.4554652834037,466.2845839694626L402.8276930769354,468.52255605808796L403.0457831609995,470.8199216511267L403.1019697290237,473.17437914893793L402.98834156811665,475.58308088192473L402.6968895598792,478.04257272681986L402.21956526293076,480.5487318586197L401.5483518518009,483.09670370360163L400.6753486356688,485.6808394832974L399.59287025813126,488.29463610382606L398.2935614670996,490.9306805423575L396.770528022638,493.5806012999784L395.0174838612026,496.2350299084861L393.0289140412122,498.88357587054367L390.80025224652474,501.5148187426611L388.32807071951277,504.11632129478767L385.61027944521277,506.6746677478353L382.64633024065745,509.17553094553557L379.43742016791674,511.60377190373475L375.9866874577746,513.9435744486897L372.2993919993065,516.1786165704227L368.38307153580524,518.2922786655904L364.2476641406739,520.2678870476287L359.9055874619989,522.0889890226481L355.3717657425229,523.7396535765959L350.66359683167224,525.2047894474942L345.8008533452223,526.470470259379L340.8055147636189,527.52425468773L335.7015304784619,528.3554885247732L330.51451740241635,528.9555752026633L325.2713994838483,529.3182019395675L320,529.4395102393196M319.99999999999994,581.7993877991494L310.1193905471739,581.5613318714356L300.28940632933757,580.8912515513183L290.5811133712443,579.7589021658096L281.01982308795925,578.2183907076007L271.69128498874477,576.255068847035L262.5925412783834,573.927669096027L253.81848643870848,571.23691180283L245.33744410822436,568.2401331339245L237.24893909472377,564.9517688969988L229.49459650055925,561.4221598476015L222.1754102815152,557.6771138535075L215.21022381255446,553.7556166555573L208.69959903807492,549.6924509274969L202.54457064416047,545.5125237629923L196.8442978842327,541.2575314937579L191.4872131186737,536.9371996011154L186.57065916282966,532.598553213174L181.97528638995811,528.2363614883482L177.79646636038507,523.901839589977L173.9111444776301,519.5759476035012L167.17740031611118,511.0826942123174L161.6485465735648,502.8485085246417L157.19920451812345,494.93607223155584L153.70949349379893,487.38461103076884L151.06816521350422,480.21521016451175L149.17412601301342,473.43538494625886L147.93686988339437,467.04282769436804L147.27622378199462,461.02837272692705L147.121694394781,455.3782780168715L147.41161390911668,450.0759401933268L148.0922132195155,445.10315635284405L149.1167015995228,440.4410329185728L150.4443980903345,436.0706252015661L152.03993762667622,431.97337491554913L153.87256085719306,428.13139831135675L155.91548812378198,424.52766538764365L158.14537325545015,421.14610079795295L160.54183038790836,417.97162935368095L163.08702604406938,414.990183074472L165.76532860927452,412.18868221788284L168.5630077242871,409.55499932195204L171.4679767563607,407.07791276083896L174.46957224534393,404.74705443831306L177.5583649701439,402.55285486444535L180.7259979921978,400.4864878524111L183.96504768243366,398.5398163397448L187.2689043168507,396.7053403099635L190.63166933224656,394.9761474124622L194.04806677147434,393.34586661095784L197.5133668229775,391.80862500379624L201.02331967921742,390.3590078311705L204.5740982100239,388.9920215985141L208.16224817654637,387.703060190108L211.78464490542166,386.4878738135161L215.4384555063804,385.3425405974526L219.12110585446743,384.2634406583993L222.83025167436548,383.2472324513552L226.5637531624243,382.29083122505045L230.31965266480444,381.3913894100385L234.09615500009517,380.54627877803546L237.8916100739193,379.753074221818L241.70449748311668,379.0095390163136L245.53341284954774,378.313611432788L249.3770556595887,377.6633925889949L253.23421841601015,377.0571354286142L257.10377693498907,376.49323473316986L260.98468164320565,375.9702180788438L264.8759497489147,375.48673765916027L268.77665817705224,375.04156290242696L272.68593717225787,374.63357382010355L276.60296448550827,374.2617550289646L280.52696007016385,373.92519039607095L284.4571812218688,373.6230582612077L288.39291810412635,373.3546271966364L292.3334896076635,373.1192522687813L296.2782394970517,372.91637177087955L300.2265328025786,372.7455043997088L304.1777524191777,372.6062468533024L308.13129587739377,372.4982718301196L312.0865722539677,372.4213264134814L316.04299919171535,372.37523082825845L320,372.3598775598299L323.95700080828465,372.37523082825845L327.9134277460323,372.4213264134814L331.86870412260623,372.4982718301196L335.8222475808223,372.6062468533024L339.7734671974214,372.7455043997088L343.7217605029483,372.91637177087955L347.6665103923365,373.1192522687813L351.60708189587365,373.3546271966364L355.5428187781312,373.6230582612077L359.47303992983615,373.92519039607095L363.39703551449173,374.2617550289646L367.31406282774213,374.63357382010355L371.22334182294776,375.04156290242696L375.1240502510853,375.48673765916027L379.01531835679435,375.9702180788438L382.89622306501093,376.49323473316986L386.76578158398985,377.0571354286142L390.6229443404113,377.6633925889949L394.46658715045226,378.313611432788L398.2955025168833,379.0095390163136L402.1083899260807,379.753074221818L405.90384499990483,380.54627877803546L409.68034733519556,381.3913894100385L413.4362468375757,382.29083122505045L417.1697483256345,383.2472324513552L420.87889414553257,384.2634406583993L424.56154449361964,385.3425405974526L428.21535509457834,386.4878738135161L431.83775182345363,387.703060190108L435.42590178997614,388.9920215985141L438.9766803207826,390.3590078311705L442.4866331770225,391.80862500379624L445.95193322852566,393.34586661095784L449.3683306677534,394.9761474124622L452.7310956831493,396.7053403099635L456.0349523175663,398.5398163397448L459.2740020078022,400.4864878524111L462.4416350298561,402.55285486444535L465.5304277546561,404.74705443831306L468.5320232436393,407.07791276083896L471.4369922757129,409.55499932195204L474.23467139072545,412.18868221788284L476.9129739559306,414.990183074472L479.45816961209164,417.97162935368095L481.8546267445498,421.14610079795295L484.084511876218,424.52766538764365L486.1274391428069,428.13139831135675L487.9600623733238,431.97337491554913L489.5556019096655,436.0706252015661L490.8832984004772,440.4410329185728L491.9077867804845,445.10315635284405L492.5883860908833,450.0759401933268L492.878305605219,455.3782780168715L492.72377621800536,461.02837272692705L492.06313011660563,467.04282769436804L490.8258739869866,473.43538494625886L488.93183478649576,480.21521016451175L486.29050650620104,487.38461103076884L482.80079548187655,494.93607223155584L478.3514534264352,502.8485085246417L472.8225996838888,511.0826942123174L466.0888555223699,519.5759476035012L462.20353363961493,523.901839589977L458.0247136100419,528.2363614883482L453.42934083717034,532.598553213174L448.5127868813263,536.9371996011154L443.1557021157673,541.2575314937579L437.45542935583956,545.5125237629923L431.3004009619251,549.6924509274969L424.78977618744557,553.7556166555573L417.8245897184848,557.6771138535075L410.5054034994407,561.4221598476015L402.75106090527623,564.9517688969988L394.66255589177564,568.2401331339245L386.1815135612915,571.23691180283L377.4074587216166,573.927669096027L368.30871501125523,576.255068847035L358.98017691204075,578.2183907076007L349.4188866287557,579.7589021658096L339.71059367066243,580.8912515513183L329.8806094528261,581.5613318714356L320.00000000000006,581.7993877991494M319.99999999999994,58.20061220085057L310.1193905471739,58.43866812856436L300.28940632933757,59.108748448681695L290.5811133712443,60.241097834190384L281.01982308795925,61.781609292399196L271.69128498874477,63.74493115296502L262.5925412783834,66.07233090397301L253.81848643870848,68.76308819716994L245.33744410822436,71.75986686607555L237.24893909472377,75.04823110300111L229.49459650055925,78.57784015239847L222.1754102815152,82.32288614649244L215.21022381255446,86.24438334444264L208.69959903807492,90.3075490725031L202.54457064416047,94.4874762370078L196.8442978842327,98.74246850624203L191.4872131186737,103.0628003988846L186.57065916282966,107.401446786826L181.97528638995811,111.76363851165189L177.79646636038507,116.09816041002301L173.9111444776301,120.42405239649884L167.17740031611118,128.91730578768258L161.6485465735648,137.1514914753583L157.19920451812345,145.06392776844416L153.70949349379893,152.61538896923113L151.06816521350422,159.78478983548825L149.17412601301342,166.56461505374114L147.93686988339437,172.95717230563199L147.27622378199462,178.97162727307295L147.121694394781,184.62172198312854L147.41161390911668,189.9240598066732L148.0922132195155,194.89684364715592L149.1167015995228,199.55896708142723L150.4443980903345,203.9293747984339L152.03993762667622,208.02662508445084L153.87256085719306,211.86860168864325L155.91548812378198,215.47233461235632L158.14537325545015,218.85389920204707L160.54183038790836,222.02837064631905L163.08702604406938,225.009816925528L165.76532860927452,227.81131778211716L168.5630077242871,230.44500067804796L171.4679767563607,232.92208723916104L174.46957224534393,235.25294556168694L177.5583649701439,237.44714513555465L180.7259979921978,239.51351214758893L183.96504768243366,241.46018366025518L187.2689043168507,243.29465969003653L190.63166933224656,245.02385258753785L194.04806677147434,246.6541333890422L197.5133668229775,248.19137499620373L201.02331967921742,249.6409921688295L204.5740982100239,251.0079784014859L208.16224817654637,252.296939809892L211.78464490542166,253.51212618648387L215.4384555063804,254.65745940254737L219.12110585446743,255.7365593416007L222.83025167436548,256.7527675486448L226.5637531624243,257.70916877494955L230.31965266480444,258.6086105899615L234.09615500009517,259.45372122196454L237.8916100739193,260.246925778182L241.70449748311668,260.9904609836864L245.53341284954774,261.686388567212L249.3770556595887,262.3366074110051L253.23421841601015,262.9428645713858L257.10377693498907,263.50676526683014L260.98468164320565,264.0297819211562L264.8759497489147,264.51326234083973L268.77665817705224,264.95843709757304L272.68593717225787,265.36642617989645L276.60296448550827,265.7382449710354L280.52696007016385,266.07480960392905L284.4571812218688,266.3769417387923L288.39291810412635,266.6453728033636L292.3334896076635,266.8807477312187L296.2782394970517,267.08362822912045L300.2265328025786,267.2544956002912L304.1777524191777,267.3937531466976L308.13129587739377,267.5017281698804L312.0865722539677,267.5786735865186L316.04299919171535,267.62476917174155L320,267.6401224401701L323.95700080828465,267.62476917174155L327.9134277460323,267.5786735865186L331.86870412260623,267.5017281698804L335.8222475808223,267.3937531466976L339.7734671974214,267.2544956002912L343.7217605029483,267.08362822912045L347.6665103923365,266.8807477312187L351.60708189587365,266.6453728033636L355.5428187781312,266.3769417387923L359.47303992983615,266.07480960392905L363.39703551449173,265.7382449710354L367.31406282774213,265.36642617989645L371.22334182294776,264.95843709757304L375.1240502510853,264.51326234083973L379.01531835679435,264.0297819211562L382.89622306501093,263.50676526683014L386.76578158398985,262.9428645713858L390.6229443404113,262.3366074110051L394.46658715045226,261.686388567212L398.2955025168833,260.9904609836864L402.1083899260807,260.246925778182L405.90384499990483,259.45372122196454L409.68034733519556,258.6086105899615L413.4362468375757,257.70916877494955L417.1697483256345,256.7527675486448L420.87889414553257,255.7365593416007L424.56154449361964,254.65745940254737L428.21535509457834,253.51212618648387L431.83775182345363,252.296939809892L435.42590178997614,251.0079784014859L438.9766803207826,249.6409921688295L442.4866331770225,248.19137499620373L445.95193322852566,246.6541333890422L449.3683306677534,245.02385258753785L452.7310956831493,243.29465969003653L456.0349523175663,241.46018366025518L459.2740020078022,239.51351214758893L462.4416350298561,237.44714513555465L465.5304277546561,235.25294556168694L468.5320232436393,232.92208723916104L471.4369922757129,230.44500067804796L474.23467139072545,227.81131778211716L476.9129739559306,225.009816925528L479.45816961209164,222.02837064631905L481.8546267445498,218.85389920204707L484.084511876218,215.47233461235632L486.1274391428069,211.86860168864325L487.9600623733238,208.02662508445084L489.5556019096655,203.9293747984339L490.8832984004772,199.55896708142723L491.9077867804845,194.89684364715592L492.5883860908833,189.9240598066732L492.878305605219,184.62172198312854L492.72377621800536,178.97162727307295L492.06313011660563,172.95717230563199L490.8258739869866,166.56461505374114L488.93183478649576,159.78478983548825L486.29050650620104,152.61538896923113L482.80079548187655,145.06392776844416L478.3514534264352,137.1514914753583L472.8225996838888,128.91730578768258L466.0888555223699,120.42405239649884L462.20353363961493,116.09816041002301L458.0247136100419,111.76363851165189L453.42934083717034,107.401446786826L448.5127868813263,103.0628003988846L443.1557021157673,98.74246850624203L437.45542935583956,94.4874762370078L431.3004009619251,90.3075490725031L424.78977618744557,86.24438334444264L417.8245897184848,82.32288614649244L410.5054034994407,78.57784015239847L402.75106090527623,75.04823110300111L394.66255589177564,71.75986686607555L386.1815135612915,68.76308819716994L377.4074587216166,66.07233090397301L368.30871501125523,63.74493115296502L358.98017691204075,61.781609292399196L349.4188866287557,60.241097834190384L339.71059367066243,59.108748448681695L329.8806094528261,58.43866812856436L320.00000000000006,58.20061220085057M320,110.56048976068044L314.7286005161517,110.6817980604325L309.48548259758365,111.04442479733663L304.2984695215381,111.64451147522675L299.1944852363811,112.47574531226999L294.1991466547777,113.529529740621L289.33640316832776,114.79521055250581L284.6282342574771,116.2603464234042L280.0944125380011,117.91101097735185L275.7523358593261,119.7321129523713L271.61692846419476,121.70772133440963L267.7006080006935,123.82138342957731L264.0133125422254,126.05642555131033L260.56257983208326,128.39622809626525L257.35366975934255,130.82446905446443L254.38972055478723,133.32533225216466L251.6719292804872,135.88367870521233L249.19974775347526,138.4851812573389L246.9710859587878,141.11642412945633L244.9825161387974,143.7649700915139L243.22947197736198,146.41939870002162L241.7064385329004,149.0693194576425L240.40712974186877,151.70536389617396L239.32465136433117,154.31916051670257L238.45164814819913,156.90329629639834L237.78043473706924,159.4512681413803L237.30311044012083,161.95742727318014L237.01165843188332,164.4169191180753L236.89803027097628,166.82562085106207L236.95421683900048,169.1800783488733L237.17230692306458,171.47744394191207L237.54453471659627,173.71541603053743L238.06331750999436,175.89218134986632L238.7212848000049,178.00636042912166L239.51129997675133,180.05695659444496L240.42647566009208,182.04330870454748L241.46018366025515,183.96504768243366L242.60606043747103,185.8220568092652L243.85800883595522,187.6144356738584L245.21019677213928,189.34246761919277L246.65705346752543,191.00659049190202L248.19326373414657,192.60737047869725L249.81376074593535,194.14547880217407L251.51371766248667,195.6216710450445L253.2885384125579,197.03676887449495L255.13384789280664,198.3916439454434L257.0454817921967,199.68720377161918L259.0194762136218,200.92437936555882L261.0520572309863,202.10411446197264L263.1396304916325,203.22735615285984L265.2787709500185,204.2950467767567L267.4662127983895,205.3081169182465L269.698839643327,206.26747938709946L271.97367496305776,207.17402405897622L274.2878728688396,208.02861347142198L276.6387091842487,208.83207907984175L279.02357284846414,209.58521808826464L281.43995764338626,210.28879077897994L283.8854542394077,210.9435182735902L286.35774255066696,211.55008066571236L288.85458438747474,212.1091154725147L291.37381639116404,212.62121635856093L293.9133432347471,213.0869320910912L296.47113107135556,213.50676569096592L299.04520121140274,213.88117374808076L301.633624008664,214.21056587418732L304.234512934954,214.4953042697721L306.84601882274217,214.73570338500582L309.46632425483483,214.93202965782348L312.0936380801405,215.08450131497295L314.726190034482,215.19328822442165L317.36222544541164,215.25851178987108L320,215.28024488034023L322.63777455458836,215.25851178987108L325.273809965518,215.19328822442165L327.9063619198595,215.08450131497295L330.53367574516517,214.93202965782348L333.15398117725783,214.73570338500582L335.765487065046,214.4953042697721L338.366375991336,214.21056587418732L340.95479878859726,213.88117374808076L343.52886892864444,213.50676569096592L346.0866567652529,213.0869320910912L348.62618360883596,212.62121635856093L351.14541561252526,212.1091154725147L353.64225744933304,211.55008066571236L356.1145457605923,210.9435182735902L358.56004235661374,210.28879077897994L360.97642715153586,209.58521808826464L363.3612908157513,208.83207907984175L365.7121271311604,208.02861347142198L368.02632503694224,207.17402405897622L370.301160356673,206.26747938709946L372.5337872016105,205.3081169182465L374.7212290499815,204.2950467767567L376.8603695083675,203.22735615285984L378.9479427690137,202.10411446197264L380.9805237863782,200.92437936555882L382.9545182078033,199.68720377161918L384.86615210719333,198.3916439454434L386.7114615874421,197.03676887449495L388.48628233751333,195.6216710450445L390.1862392540646,194.14547880217407L391.80673626585343,192.60737047869725L393.34294653247457,191.00659049190202L394.7898032278607,189.34246761919277L396.1419911640448,187.6144356738584L397.393939562529,185.8220568092652L398.53981633974485,183.96504768243366L399.5735243399079,182.04330870454748L400.48870002324867,180.05695659444496L401.2787151999951,178.00636042912166L401.93668249000564,175.89218134986632L402.4554652834037,173.71541603053743L402.8276930769354,171.47744394191207L403.0457831609995,169.1800783488733L403.1019697290237,166.82562085106207L402.98834156811665,164.4169191180753L402.6968895598792,161.95742727318014L402.21956526293076,159.4512681413803L401.5483518518009,156.90329629639834L400.6753486356688,154.31916051670257L399.59287025813126,151.70536389617396L398.2935614670996,149.0693194576425L396.770528022638,146.41939870002162L395.0174838612026,143.7649700915139L393.0289140412122,141.11642412945633L390.80025224652474,138.4851812573389L388.32807071951277,135.88367870521233L385.61027944521277,133.32533225216466L382.64633024065745,130.82446905446443L379.43742016791674,128.39622809626525L375.9866874577746,126.05642555131033L372.2993919993065,123.82138342957731L368.38307153580524,121.70772133440963L364.2476641406739,119.7321129523713L359.9055874619989,117.91101097735185L355.3717657425229,116.2603464234042L350.66359683167224,114.79521055250581L345.8008533452223,113.529529740621L340.8055147636189,112.47574531226999L335.7015304784619,111.64451147522675L330.51451740241635,111.04442479733663L325.2713994838483,110.6817980604325L320,110.56048976068044"></path></svg>